<svg version="1.1" id="Layer_1" xmlns="http://www.w3.org/2000/svg" xmlns:xlink="http://www.w3.org/1999/xlink" x="0px" y="0px"
	 width="100%" viewBox="0 0 934 848" enable-background="new 0 0 934 848" xml:space="preserve">
<path fill="#000000" opacity="0" stroke="none" 
	d="
M543.000000,849.000000 
	C362.000000,849.000000 181.500000,849.000000 1.000000,849.000000 
	C1.000000,566.333313 1.000000,283.666656 1.000000,1.000000 
	C312.333344,1.000000 623.666687,1.000000 935.000000,1.000000 
	C935.000000,283.666656 935.000000,566.333313 935.000000,849.000000 
	C804.500000,849.000000 674.000000,849.000000 543.000000,849.000000 
M767.500061,377.946167 
	C791.535950,377.630768 815.571899,377.315399 839.181396,377.005615 
	C839.181396,288.401520 839.181396,200.427490 839.181396,112.453461 
	C838.474792,111.972610 837.768188,111.491760 837.061584,111.010910 
	C813.136108,136.125000 789.210693,161.239105 765.285217,186.353195 
	C763.761230,184.946060 763.539978,184.969727 763.460693,184.874832 
	C749.124817,167.707642 733.386414,151.965759 716.174805,137.659607 
	C695.922974,120.826370 674.079529,106.395576 650.833130,94.115242 
	C619.234619,77.422729 586.070435,64.918968 551.243408,56.616890 
	C528.653320,51.231842 505.821686,47.557243 482.731720,46.309082 
	C454.265503,44.770290 425.789185,45.911369 397.656586,51.134033 
	C367.872864,56.663204 339.021881,65.279747 311.449554,77.994400 
	C274.754944,94.915672 241.695419,117.240997 212.656586,145.289215 
	C202.201828,155.387329 192.680832,166.488342 183.122528,177.470123 
	C167.877167,194.985901 155.189072,214.360062 144.274673,234.777527 
	C129.750183,261.948334 118.669388,290.471313 111.650841,320.616302 
	C106.761780,341.615051 103.631004,362.813263 102.289268,384.236816 
	C101.426521,398.012207 101.932625,411.889191 102.206665,425.713074 
	C102.339279,432.402649 103.349953,439.074799 103.953308,445.648529 
	C102.574211,446.148651 101.537209,446.660156 100.440704,446.902222 
	C80.946518,451.205872 67.449371,462.931488 58.881149,480.634857 
	C49.584873,499.842499 48.799213,520.072205 53.173229,540.454468 
	C59.648403,570.627686 85.152061,591.314453 116.657120,591.010864 
	C128.023331,590.901245 138.781128,588.689148 149.079498,583.425476 
	C150.302124,585.396362 151.337494,587.006348 152.315353,588.650574 
	C166.394974,612.326172 182.735336,634.376404 202.016449,653.996338 
	C214.051071,666.242432 226.920822,677.813599 240.352966,688.510986 
	C270.887909,712.828979 304.902954,731.038635 341.682129,744.248169 
	C381.412567,758.517639 422.510773,764.160583 464.463898,764.804688 
	C472.235535,764.924011 480.017700,764.078979 487.796753,764.041992 
	C510.958740,763.931885 534.121582,764.002502 557.284119,764.002502 
	C559.069336,764.002502 560.854492,764.002502 563.002502,764.002502 
	C563.002502,762.292664 563.007935,761.001099 563.001770,759.709534 
	C562.669312,689.943665 562.325806,620.177856 562.011292,550.411865 
	C561.950439,536.914612 561.938843,523.416199 562.071106,509.919891 
	C562.090881,507.893005 562.602844,505.630890 563.604614,503.890594 
	C574.196838,485.489899 584.898682,467.151947 595.641479,448.838409 
	C608.616882,426.718933 621.768250,404.701538 634.558167,382.475708 
	C636.450012,379.188110 638.124146,377.828217 642.025879,377.843719 
	C683.516724,378.008789 725.008484,377.946167 767.500061,377.946167 
M698.500000,728.947327 
	C760.585022,728.947327 822.670044,728.947327 884.753418,728.947327 
	C884.753418,712.992310 884.753418,697.717163 884.753418,682.019653 
	C879.830383,682.019653 875.078613,682.019653 869.950745,682.019653 
	C869.950745,665.646423 869.928650,649.693970 870.000061,633.741943 
	C870.004822,632.674133 870.453552,631.386780 871.139038,630.576477 
	C883.138123,616.392334 885.518616,599.237671 885.812561,581.653748 
	C885.949707,573.451294 884.943970,565.188782 883.936462,557.017578 
	C882.330017,543.988892 877.212708,532.359009 868.142822,522.786377 
	C850.746277,504.425385 828.828613,501.610535 805.360718,505.623718 
	C799.151611,506.685516 793.257812,509.590698 786.884277,511.763672 
	C786.884277,509.813812 786.884277,508.050323 786.884277,506.231689 
	C720.487122,506.231689 654.403625,506.231689 587.728271,506.231689 
	C587.728271,580.487061 587.728271,654.508423 587.728271,728.947327 
	C624.251160,728.947327 660.875549,728.947327 698.500000,728.947327 
z"/>
<path fill="#FEFDFE" opacity="1.000000" stroke="none" 
	d="
M767.000000,377.946167 
	C725.008484,377.946167 683.516724,378.008789 642.025879,377.843719 
	C638.124146,377.828217 636.450012,379.188110 634.558167,382.475708 
	C621.768250,404.701538 608.616882,426.718933 595.641479,448.838409 
	C584.898682,467.151947 574.196838,485.489899 563.604614,503.890594 
	C562.602844,505.630890 562.090881,507.893005 562.071106,509.919891 
	C561.938843,523.416199 561.950439,536.914612 562.011292,550.411865 
	C562.325806,620.177856 562.669312,689.943665 563.001770,759.709534 
	C563.007935,761.001099 563.002502,762.292664 563.002502,764.002502 
	C560.854492,764.002502 559.069336,764.002502 557.284119,764.002502 
	C534.121582,764.002502 510.958740,763.931885 487.796753,764.041992 
	C480.017700,764.078979 472.235535,764.924011 464.463898,764.804688 
	C422.510773,764.160583 381.412567,758.517639 341.682129,744.248169 
	C304.902954,731.038635 270.887909,712.828979 240.352966,688.510986 
	C226.920822,677.813599 214.051071,666.242432 202.016449,653.996338 
	C182.735336,634.376404 166.394974,612.326172 152.315353,588.650574 
	C151.337494,587.006348 150.302124,585.396362 149.079498,583.425476 
	C138.781128,588.689148 128.023331,590.901245 116.657120,591.010864 
	C85.152061,591.314453 59.648403,570.627686 53.173229,540.454468 
	C48.799213,520.072205 49.584873,499.842499 58.881149,480.634857 
	C67.449371,462.931488 80.946518,451.205872 100.440704,446.902222 
	C101.537209,446.660156 102.574211,446.148651 103.953308,445.648529 
	C103.349953,439.074799 102.339279,432.402649 102.206665,425.713074 
	C101.932625,411.889191 101.426521,398.012207 102.289268,384.236816 
	C103.631004,362.813263 106.761780,341.615051 111.650841,320.616302 
	C118.669388,290.471313 129.750183,261.948334 144.274673,234.777527 
	C155.189072,214.360062 167.877167,194.985901 183.122528,177.470123 
	C192.680832,166.488342 202.201828,155.387329 212.656586,145.289215 
	C241.695419,117.240997 274.754944,94.915672 311.449554,77.994400 
	C339.021881,65.279747 367.872864,56.663204 397.656586,51.134033 
	C425.789185,45.911369 454.265503,44.770290 482.731720,46.309082 
	C505.821686,47.557243 528.653320,51.231842 551.243408,56.616890 
	C586.070435,64.918968 619.234619,77.422729 650.833130,94.115242 
	C674.079529,106.395576 695.922974,120.826370 716.174805,137.659607 
	C733.386414,151.965759 749.124817,167.707642 763.460693,184.874832 
	C763.539978,184.969727 763.761230,184.946060 765.285217,186.353195 
	C789.210693,161.239105 813.136108,136.125000 837.061584,111.010910 
	C837.768188,111.491760 838.474792,111.972610 839.181396,112.453461 
	C839.181396,200.427490 839.181396,288.401520 839.181396,377.005615 
	C815.571899,377.315399 791.535950,377.630768 767.000000,377.946167 
M282.281464,679.228882 
	C332.965515,712.213440 388.468872,730.233337 448.955566,731.976135 
	C475.095764,732.729309 501.273010,732.200684 527.433411,732.237488 
	C528.538696,732.239075 529.644226,732.069580 531.092285,731.951904 
	C531.092285,730.153503 531.099426,728.684875 531.091309,727.216309 
	C530.811890,676.576721 530.505432,625.937195 530.261536,575.297424 
	C530.144348,550.969849 530.061951,526.641235 530.199951,502.314453 
	C530.216736,499.348114 531.104553,496.040466 532.597900,493.479492 
	C567.969543,432.821625 603.482971,372.246460 638.961060,311.650665 
	C644.393555,302.372101 649.779602,293.066376 655.493591,283.246521 
	C654.212036,283.122253 653.617554,283.014252 653.023071,283.014130 
	C611.029480,283.004730 569.035706,282.962036 527.042969,283.149139 
	C525.286316,283.156982 522.859436,284.909088 521.891296,286.532349 
	C510.215424,306.109192 498.757294,325.815918 487.239288,345.486969 
	C480.531860,356.942261 473.818756,368.394226 466.809357,380.357758 
	C465.269257,378.271973 464.103302,376.715668 462.960815,375.142303 
	C441.533844,345.634430 420.081360,316.144958 398.735291,286.578644 
	C396.909668,284.049927 395.089233,282.907959 391.823822,282.917908 
	C349.830597,283.045410 307.836853,283.000366 265.843262,283.011230 
	C264.614380,283.011536 263.385559,283.145782 261.613403,283.249329 
	C262.467072,284.632202 262.935303,285.467407 263.474762,286.253754 
	C309.339111,353.108459 355.077881,420.050262 401.249176,486.692352 
	C406.840851,494.763184 409.499390,502.688538 409.467285,512.384399 
	C409.323303,555.868042 409.618164,599.353271 409.738800,642.837952 
	C409.743164,644.415466 409.582153,645.993530 409.485260,647.814758 
	C408.335266,647.633667 407.691406,647.568665 407.064392,647.428284 
	C366.157349,638.273010 329.898010,619.907043 297.989288,592.742371 
	C295.724579,590.814392 292.139923,589.513672 289.158051,589.492798 
	C256.526489,589.264893 223.892761,589.349976 190.678726,589.349976 
	C215.428146,625.484192 245.613205,655.147888 282.281464,679.228882 
M407.347229,161.904800 
	C408.477692,161.629578 409.600403,161.316467 410.739716,161.084656 
	C447.864105,153.531067 484.892029,154.551483 521.648254,163.177673 
	C579.417297,176.735260 629.870056,203.517441 670.567566,247.341858 
	C683.072510,260.807587 693.581116,275.740997 702.838623,293.849976 
	C685.453857,310.738892 667.839111,327.851257 650.033386,345.149109 
	C702.514343,345.149109 754.680725,345.149109 806.929443,345.149109 
	C806.929443,292.621460 806.929443,240.599930 806.929443,188.578384 
	C806.373840,188.126617 805.818176,187.674850 805.262573,187.223083 
	C790.077271,202.877380 774.891968,218.531662 759.510254,234.388489 
	C747.819519,215.550400 734.439209,198.783600 719.202087,183.538223 
	C690.178650,154.499069 656.774963,131.618164 619.609985,114.382660 
	C550.885925,82.511459 479.058899,69.012436 403.934784,83.014282 
	C293.972504,103.509354 214.604416,165.370438 164.982269,265.278992 
	C146.424118,302.643768 136.463608,342.650726 134.601624,384.295227 
	C133.712769,404.175201 135.414169,424.173706 136.075943,444.114075 
	C136.117783,445.374847 137.007156,447.219604 138.034195,447.737244 
	C145.303711,451.401245 152.712280,454.789337 159.872116,458.168945 
	C159.993973,455.385529 160.143723,451.965454 160.338715,447.511658 
	C179.015213,447.511658 197.206848,447.511658 215.551346,447.511658 
	C192.800720,307.661102 285.370270,188.609848 407.347229,161.904800 
M484.566467,286.970398 
	C490.752136,276.208740 497.064117,265.516510 503.039276,254.639191 
	C504.637421,251.729904 506.433899,250.912766 509.626953,250.922577 
	C547.450012,251.038879 585.273621,251.000061 623.097046,250.987869 
	C624.630615,250.987381 626.164185,250.847092 628.748291,250.720444 
	C621.385498,245.260605 615.025085,240.378418 608.496460,235.732651 
	C584.573792,218.709152 558.315063,206.334305 530.091248,198.637238 
	C514.379456,194.352371 498.206238,191.297699 482.042175,189.285629 
	C470.167206,187.807449 457.965546,188.709320 445.916626,188.934280 
	C430.403778,189.223923 415.362457,192.527359 400.478668,196.717133 
	C374.019379,204.165405 350.063660,216.569946 328.345825,233.281693 
	C321.554321,238.507706 315.329376,244.470001 307.805176,250.997421 
	C310.708221,250.997421 311.860382,250.997421 313.012512,250.997421 
	C344.837524,250.997437 376.662598,250.971207 408.487305,251.067642 
	C410.250732,251.072998 412.769897,251.531860 413.657928,252.728821 
	C425.189301,268.271057 436.491730,283.983185 447.845490,299.657104 
	C453.092407,306.900543 458.325531,314.153961 463.909882,321.880127 
	C470.892120,309.951050 477.463654,298.723663 484.566467,286.970398 
M93.368767,467.761444 
	C84.303947,472.552002 78.106560,480.018494 74.007523,489.207184 
	C68.379211,501.823975 67.328278,515.073730 68.781021,528.729553 
	C72.971657,568.121643 107.897408,580.940125 136.839432,569.813843 
	C152.125229,563.937500 163.136185,547.072998 161.747604,532.491821 
	C151.992157,531.939575 142.161682,531.383057 132.591843,530.841248 
	C131.870926,533.949707 131.505554,536.258728 130.793854,538.455566 
	C128.715256,544.871643 124.131599,548.516907 118.132156,548.728455 
	C112.152153,548.939270 106.483765,545.251221 104.696838,538.774902 
	C100.813011,524.698975 100.772598,510.479553 105.407173,496.539581 
	C107.683022,489.694305 112.809738,486.514252 118.993439,487.052612 
	C124.602646,487.540985 129.551559,492.429199 130.858658,498.905609 
	C131.403534,501.605286 131.744568,504.346100 132.220779,507.334961 
	C142.455414,506.790863 152.318405,506.266541 162.517853,505.724304 
	C160.985489,488.903046 155.324768,474.779602 139.824219,467.336945 
	C124.856987,460.150360 109.276573,460.541229 93.368767,467.761444 
M290.984589,382.628296 
	C279.518188,366.119690 268.051758,349.611053 256.389130,332.819946 
	C240.162033,380.072601 240.108643,426.956482 255.575790,474.394653 
	C263.121216,473.969818 270.460693,473.556549 278.159607,473.123077 
	C278.159607,464.035614 278.159607,455.625580 278.159607,446.692017 
	C297.034180,446.692017 315.513611,446.692017 334.691315,446.692017 
	C319.848938,425.110626 305.486664,404.227417 290.984589,382.628296 
M223.092819,564.376892 
	C223.092819,559.284912 223.092819,554.192871 223.092819,549.182373 
	C219.315338,549.462585 216.178513,549.891418 213.044266,549.873352 
	C209.816223,549.854797 207.420624,548.082275 207.365662,544.760498 
	C207.187653,534.000000 207.299179,523.234802 207.299179,511.919708 
	C212.775970,511.919708 217.834930,511.919708 222.781631,511.919708 
	C222.781631,504.930023 222.781631,498.504883 222.781631,491.506958 
	C217.417999,491.506958 212.353012,491.506958 206.870468,491.506958 
	C206.870468,482.340576 206.870468,473.752197 206.870468,465.522095 
	C196.683487,465.522095 186.958237,465.522095 176.905701,465.522095 
	C176.905701,473.402771 176.819672,480.727173 176.949265,488.047760 
	C176.999069,490.861023 175.996582,491.967346 173.170670,491.786346 
	C170.439209,491.611389 167.687775,491.748444 165.107361,491.748444 
	C165.107361,498.997955 165.107361,505.406616 165.107361,512.219849 
	C169.056564,512.219849 172.655029,512.219849 176.749451,512.219849 
	C176.749451,514.424133 176.742584,516.214600 176.750565,518.004944 
	C176.800339,529.167664 176.596237,540.339294 176.979813,551.490601 
	C177.343063,562.051086 182.828827,568.786926 192.669510,571.458740 
	C202.720001,574.187500 212.740479,573.014832 223.092834,571.032715 
	C223.092834,568.955811 223.092834,567.144897 223.092819,564.376892 
M326.996643,494.500000 
	C326.996643,484.419739 326.996643,474.339478 326.996643,464.343262 
	C315.979248,464.343262 305.597870,464.343262 295.319397,464.343262 
	C295.319397,500.365845 295.319397,536.047668 295.319397,571.657104 
	C306.020111,571.657104 316.401489,571.657104 326.996643,571.657104 
	C326.996643,546.045349 326.996643,520.772705 326.996643,494.500000 
M268.686951,521.113647 
	C273.911530,519.586304 279.136108,518.058899 285.241943,516.273926 
	C285.241943,509.393402 285.344818,501.117706 285.105042,492.851959 
	C285.076721,491.875580 283.256500,490.259247 282.120087,490.117676 
	C273.887115,489.091827 266.332703,493.378296 262.458405,500.952148 
	C261.796021,502.247040 261.180054,503.565674 260.542664,504.873352 
	C260.250458,504.788391 259.958252,504.703400 259.666046,504.618408 
	C259.666046,500.380371 259.666046,496.142303 259.666046,492.142395 
	C250.799179,492.142395 242.393494,492.142395 234.083405,492.142395 
	C234.083405,518.916443 234.083405,545.296753 234.083405,571.729919 
	C244.157837,571.729919 253.896683,571.729919 263.998291,571.729919 
	C263.998291,559.011658 263.655670,546.543274 264.188873,534.112488 
	C264.369293,529.905945 266.765442,525.794434 268.686951,521.113647 
M376.031433,603.993591 
	C376.400085,602.552063 377.077179,601.112915 377.088440,599.668640 
	C377.176758,588.361938 377.137360,577.054260 377.137360,565.746887 
	C377.137360,562.498535 377.137360,559.250183 377.137360,556.120422 
	C365.722961,556.120422 354.990173,556.120422 343.946259,556.120422 
	C343.946259,565.322205 344.069031,574.272522 343.878754,583.216125 
	C343.813324,586.291199 344.884369,587.989807 347.596130,589.362244 
	C356.861633,594.051636 366.014099,598.964355 376.031433,603.993591 
M345.119171,513.783691 
	C345.119171,522.040344 345.119171,530.297058 345.119171,538.773010 
	C358.817841,538.773010 372.178192,538.773010 385.762146,538.773010 
	C385.762146,530.180542 385.762146,521.808228 385.762146,513.115906 
	C372.288696,513.115906 359.046265,513.115906 345.119171,513.783691 
M353.036072,473.480957 
	C350.213013,469.408875 347.389954,465.336761 344.258911,460.820465 
	C344.258911,472.936493 344.258911,484.404755 344.258911,495.816467 
	C352.260803,495.816467 359.947815,495.816467 368.273346,495.816467 
	C363.159515,488.239014 358.355438,481.120575 353.036072,473.480957 
z"/>
<path fill="#FEFDFD" opacity="1.000000" stroke="none" 
	d="
M698.000000,728.947327 
	C660.875549,728.947327 624.251160,728.947327 587.728271,728.947327 
	C587.728271,654.508423 587.728271,580.487061 587.728271,506.231689 
	C654.403625,506.231689 720.487122,506.231689 786.884277,506.231689 
	C786.884277,508.050323 786.884277,509.813812 786.884277,511.763672 
	C793.257812,509.590698 799.151611,506.685516 805.360718,505.623718 
	C828.828613,501.610535 850.746277,504.425385 868.142822,522.786377 
	C877.212708,532.359009 882.330017,543.988892 883.936462,557.017578 
	C884.943970,565.188782 885.949707,573.451294 885.812561,581.653748 
	C885.518616,599.237671 883.138123,616.392334 871.139038,630.576477 
	C870.453552,631.386780 870.004822,632.674133 870.000061,633.741943 
	C869.928650,649.693970 869.950745,665.646423 869.950745,682.019653 
	C875.078613,682.019653 879.830383,682.019653 884.753418,682.019653 
	C884.753418,697.717163 884.753418,712.992310 884.753418,728.947327 
	C822.670044,728.947327 760.585022,728.947327 698.000000,728.947327 
M857.511780,592.918152 
	C850.739258,592.547729 843.966736,592.177246 837.559570,591.826782 
	C836.269531,595.884155 835.565186,599.551331 833.984436,602.790833 
	C829.776367,611.414673 818.089966,613.126892 811.802429,605.873901 
	C809.525452,603.247253 807.623596,599.552979 807.254761,596.160522 
	C806.323975,587.602356 805.848450,578.917847 806.199585,570.325195 
	C806.418457,564.969910 807.979553,559.509521 809.837646,554.424927 
	C811.826355,548.982666 816.371582,545.876770 822.306946,546.196228 
	C828.398193,546.524048 832.466187,550.210693 834.474548,555.832031 
	C835.407166,558.442505 835.354614,561.390442 836.082581,564.095520 
	C836.394165,565.253479 837.582764,567.097473 838.329773,567.076782 
	C848.218750,566.802795 858.100159,566.251953 867.922546,565.773315 
	C868.416443,544.896667 854.163452,526.294617 834.585205,522.185181 
	C829.429077,521.102844 824.003662,520.952759 818.703735,520.969788 
	C800.894165,521.027161 787.343628,528.748840 778.520752,544.312988 
	C770.739624,558.039429 769.505798,572.957520 770.808533,588.328308 
	C774.163757,627.917969 808.075317,643.752319 839.919617,632.961426 
	C856.256470,627.425354 868.639954,609.783875 867.700562,593.684509 
	C864.671021,593.452515 861.564697,593.214600 857.511780,592.918152 
M671.196960,567.337463 
	C660.265198,567.337463 649.333374,567.337463 638.271484,567.337463 
	C638.271484,561.009827 638.271484,555.268494 638.271484,549.069336 
	C653.942200,549.069336 669.352478,549.069336 685.006226,549.069336 
	C685.006226,540.036133 685.006226,531.463440 685.006226,522.737305 
	C658.073242,522.737305 631.379028,522.737305 604.649658,522.737305 
	C604.649658,560.050598 604.649658,596.960327 604.649658,633.936035 
	C615.865906,633.936035 626.763977,633.936035 638.158691,633.936035 
	C638.158691,620.042969 638.158691,606.464294 638.158691,592.423218 
	C650.409851,592.423218 662.164734,592.423218 674.251282,592.423218 
	C674.251282,584.637451 674.324158,577.322205 674.157776,570.012390 
	C674.137268,569.111633 672.840271,568.239929 671.196960,567.337463 
M747.093994,584.500000 
	C747.093994,572.898376 747.093994,561.296692 747.093994,549.140808 
	C755.105225,549.140808 762.505066,549.140808 769.960693,549.140808 
	C769.960693,539.992554 769.960693,531.412354 769.960693,522.796265 
	C743.642029,522.796265 717.617126,522.796265 691.749268,522.796265 
	C691.749268,531.819763 691.749268,540.384888 691.749268,549.482300 
	C699.559570,549.482300 706.972534,549.482300 714.832764,549.482300 
	C714.832764,577.942017 714.832764,605.856567 714.832764,633.849426 
	C725.830566,633.849426 736.351562,633.849426 746.791321,633.849426 
	C746.932861,633.128357 747.050171,632.808594 747.050598,632.488708 
	C747.071411,616.825806 747.082153,601.162903 747.093994,584.500000 
M736.514893,699.335266 
	C731.451477,701.372620 728.791748,698.673218 727.196045,694.183594 
	C721.717834,695.135193 716.576172,696.028381 711.424316,696.923340 
	C712.357727,703.517700 715.506714,707.841064 720.484619,710.787415 
	C732.163635,717.699951 748.740906,713.103638 755.002869,701.087402 
	C760.549438,690.443909 761.454834,679.107361 758.514954,667.597900 
	C754.063049,650.168945 735.250916,642.631104 719.705505,651.816284 
	C711.203796,656.839722 707.427429,667.288147 710.589294,677.038696 
	C713.502136,686.021423 721.556213,691.296875 731.571960,690.014587 
	C735.101685,689.562744 738.420349,687.462219 742.060791,686.025452 
	C741.418457,690.649841 741.602600,695.604187 736.514893,699.335266 
M684.498657,713.001282 
	C690.307861,713.001282 696.117065,713.001282 702.302124,713.001282 
	C702.594971,707.561157 702.867737,702.493469 703.163513,696.998718 
	C698.945435,696.998718 695.315552,696.998718 691.685608,696.998718 
	C687.947327,696.998718 684.208984,696.998718 679.902466,696.998718 
	C686.108032,691.872253 692.114990,687.680359 697.181030,682.557922 
	C706.562012,673.072510 703.965332,656.949280 692.162476,651.248474 
	C682.742065,646.698181 673.136353,647.040161 664.134888,652.874512 
	C657.836304,656.956909 655.188354,663.137451 654.148987,670.565369 
	C659.519653,671.556274 664.515991,672.478149 669.591064,673.414490 
	C670.315796,671.054626 670.766663,669.117615 671.500916,667.294861 
	C672.933899,663.737427 675.650940,662.058533 679.435669,662.950134 
	C683.490540,663.905457 684.690369,667.169617 683.817261,670.674133 
	C683.172852,673.260803 681.744751,676.128113 679.767578,677.821777 
	C672.452576,684.088135 664.730957,689.877625 657.249084,695.953491 
	C655.951416,697.007263 654.290527,698.503662 654.151917,699.927490 
	C653.740234,704.156372 654.004456,708.451050 654.004456,713.001282 
	C664.231873,713.001282 673.865601,713.001282 684.498657,713.001282 
M602.327942,662.010742 
	C602.327942,665.593994 602.327942,669.177185 602.327942,673.498596 
	C607.352051,671.866882 611.540161,670.506653 615.940674,669.077454 
	C615.940674,678.986633 615.940674,688.661133 615.940674,698.951660 
	C610.684753,698.951660 605.798950,698.951660 601.111511,698.951660 
	C601.111511,703.971680 601.111511,708.363831 601.111511,712.618286 
	C617.355225,712.618286 633.220642,712.618286 648.880188,712.618286 
	C648.880188,707.815491 648.880188,703.409180 648.880188,698.593994 
	C644.065308,698.593994 639.629883,698.593994 634.520508,698.593994 
	C634.520508,681.664001 634.520508,665.143860 634.520508,648.327209 
	C631.687378,648.327209 629.513306,648.116516 627.398499,648.380371 
	C624.740479,648.712097 621.891785,648.943420 619.550842,650.088074 
	C614.857544,652.383118 610.414062,655.205688 605.953064,657.949646 
	C604.601807,658.780823 603.531982,660.069458 602.327942,662.010742 
M830.069031,670.610840 
	C831.569092,670.021240 833.069092,669.431641 834.609985,668.825989 
	C834.609985,679.048645 834.609985,688.770020 834.609985,698.853760 
	C829.446411,698.853760 824.669434,698.853760 819.757080,698.853760 
	C819.757080,703.753540 819.757080,708.271484 819.757080,712.660645 
	C836.073425,712.660645 851.974365,712.660645 867.774170,712.660645 
	C867.774170,707.898254 867.774170,703.481995 867.774170,698.492371 
	C862.742126,698.492371 858.017944,698.492371 852.866394,698.492371 
	C852.866394,681.515503 852.866394,665.117126 852.866394,648.102417 
	C847.984741,648.405151 843.045105,647.508423 839.290894,649.216736 
	C833.140015,652.015442 827.759644,656.507568 821.322998,660.769714 
	C821.322998,663.762268 821.322998,668.302856 821.322998,673.304199 
	C824.261658,672.423645 826.785339,671.667480 830.069031,670.610840 
M783.845032,680.383484 
	C778.636169,690.469238 774.550842,700.858337 774.834473,712.736694 
	C781.909119,712.736694 788.646118,712.736694 795.310181,712.736694 
	C795.039185,695.341187 799.695068,679.558533 809.317078,665.531006 
	C812.977539,660.194458 812.161987,655.150879 811.945190,649.571777 
	C796.719299,649.571777 781.976379,649.571777 766.642395,649.571777 
	C766.238159,654.757568 765.848877,659.751404 765.417847,665.281250 
	C775.227600,665.281250 784.416748,665.281250 793.877136,665.281250 
	C790.416931,670.402771 787.274841,675.053345 783.845032,680.383484 
z"/>
<path fill="#F96A01" opacity="1.000000" stroke="none" 
	d="
M281.968323,679.050903 
	C245.613205,655.147888 215.428146,625.484192 190.678726,589.349976 
	C223.892761,589.349976 256.526489,589.264893 289.158051,589.492798 
	C292.139923,589.513672 295.724579,590.814392 297.989288,592.742371 
	C329.898010,619.907043 366.157349,638.273010 407.064392,647.428284 
	C407.691406,647.568665 408.335266,647.633667 409.485260,647.814758 
	C409.582153,645.993530 409.743164,644.415466 409.738800,642.837952 
	C409.618164,599.353271 409.323303,555.868042 409.467285,512.384399 
	C409.499390,502.688538 406.840851,494.763184 401.249176,486.692352 
	C355.077881,420.050262 309.339111,353.108459 263.474762,286.253754 
	C262.935303,285.467407 262.467072,284.632202 261.613403,283.249329 
	C263.385559,283.145782 264.614380,283.011536 265.843262,283.011230 
	C307.836853,283.000366 349.830597,283.045410 391.823822,282.917908 
	C395.089233,282.907959 396.909668,284.049927 398.735291,286.578644 
	C420.081360,316.144958 441.533844,345.634430 462.960815,375.142303 
	C464.103302,376.715668 465.269257,378.271973 466.809357,380.357758 
	C473.818756,368.394226 480.531860,356.942261 487.239288,345.486969 
	C498.757294,325.815918 510.215424,306.109192 521.891296,286.532349 
	C522.859436,284.909088 525.286316,283.156982 527.042969,283.149139 
	C569.035706,282.962036 611.029480,283.004730 653.023071,283.014130 
	C653.617554,283.014252 654.212036,283.122253 655.493591,283.246521 
	C649.779602,293.066376 644.393555,302.372101 638.961060,311.650665 
	C603.482971,372.246460 567.969543,432.821625 532.597900,493.479492 
	C531.104553,496.040466 530.216736,499.348114 530.199951,502.314453 
	C530.061951,526.641235 530.144348,550.969849 530.261536,575.297424 
	C530.505432,625.937195 530.811890,676.576721 531.091309,727.216309 
	C531.099426,728.684875 531.092285,730.153503 531.092285,731.951904 
	C529.644226,732.069580 528.538696,732.239075 527.433411,732.237488 
	C501.273010,732.200684 475.095764,732.729309 448.955566,731.976135 
	C388.468872,730.233337 332.965515,712.213440 281.968323,679.050903 
z"/>
<path fill="#F96A01" opacity="1.000000" stroke="none" 
	d="
M406.932007,161.969177 
	C285.370270,188.609848 192.800720,307.661102 215.551346,447.511658 
	C197.206848,447.511658 179.015213,447.511658 160.338715,447.511658 
	C160.143723,451.965454 159.993973,455.385529 159.872116,458.168945 
	C152.712280,454.789337 145.303711,451.401245 138.034195,447.737244 
	C137.007156,447.219604 136.117783,445.374847 136.075943,444.114075 
	C135.414169,424.173706 133.712769,404.175201 134.601624,384.295227 
	C136.463608,342.650726 146.424118,302.643768 164.982269,265.278992 
	C214.604416,165.370438 293.972504,103.509354 403.934784,83.014282 
	C479.058899,69.012436 550.885925,82.511459 619.609985,114.382660 
	C656.774963,131.618164 690.178650,154.499069 719.202087,183.538223 
	C734.439209,198.783600 747.819519,215.550400 759.510254,234.388489 
	C774.891968,218.531662 790.077271,202.877380 805.262573,187.223083 
	C805.818176,187.674850 806.373840,188.126617 806.929443,188.578384 
	C806.929443,240.599930 806.929443,292.621460 806.929443,345.149109 
	C754.680725,345.149109 702.514343,345.149109 650.033386,345.149109 
	C667.839111,327.851257 685.453857,310.738892 702.838623,293.849976 
	C693.581116,275.740997 683.072510,260.807587 670.567566,247.341858 
	C629.870056,203.517441 579.417297,176.735260 521.648254,163.177673 
	C484.892029,154.551483 447.864105,153.531067 410.739716,161.084656 
	C409.600403,161.316467 408.477692,161.629578 406.932007,161.969177 
z"/>
<path fill="#000000" opacity="0" stroke="none" 
	d="
M484.300842,287.233337 
	C477.463654,298.723663 470.892120,309.951050 463.909882,321.880127 
	C458.325531,314.153961 453.092407,306.900543 447.845490,299.657104 
	C436.491730,283.983185 425.189301,268.271057 413.657928,252.728821 
	C412.769897,251.531860 410.250732,251.072998 408.487305,251.067642 
	C376.662598,250.971207 344.837524,250.997437 313.012512,250.997421 
	C311.860382,250.997421 310.708221,250.997421 307.805176,250.997421 
	C315.329376,244.470001 321.554321,238.507706 328.345825,233.281693 
	C350.063660,216.569946 374.019379,204.165405 400.478668,196.717133 
	C415.362457,192.527359 430.403778,189.223923 445.916626,188.934280 
	C457.965546,188.709320 470.167206,187.807449 482.042175,189.285629 
	C498.206238,191.297699 514.379456,194.352371 530.091248,198.637238 
	C558.315063,206.334305 584.573792,218.709152 608.496460,235.732651 
	C615.025085,240.378418 621.385498,245.260605 628.748291,250.720444 
	C626.164185,250.847092 624.630615,250.987381 623.097046,250.987869 
	C585.273621,251.000061 547.450012,251.038879 509.626953,250.922577 
	C506.433899,250.912766 504.637421,251.729904 503.039276,254.639191 
	C497.064117,265.516510 490.752136,276.208740 484.300842,287.233337 
z"/>
<path fill="#F96B02" opacity="1.000000" stroke="none" 
	d="
M93.688263,467.567474 
	C109.276573,460.541229 124.856987,460.150360 139.824219,467.336945 
	C155.324768,474.779602 160.985489,488.903046 162.517853,505.724304 
	C152.318405,506.266541 142.455414,506.790863 132.220779,507.334961 
	C131.744568,504.346100 131.403534,501.605286 130.858658,498.905609 
	C129.551559,492.429199 124.602646,487.540985 118.993439,487.052612 
	C112.809738,486.514252 107.683022,489.694305 105.407173,496.539581 
	C100.772598,510.479553 100.813011,524.698975 104.696838,538.774902 
	C106.483765,545.251221 112.152153,548.939270 118.132156,548.728455 
	C124.131599,548.516907 128.715256,544.871643 130.793854,538.455566 
	C131.505554,536.258728 131.870926,533.949707 132.591843,530.841248 
	C142.161682,531.383057 151.992157,531.939575 161.747604,532.491821 
	C163.136185,547.072998 152.125229,563.937500 136.839432,569.813843 
	C107.897408,580.940125 72.971657,568.121643 68.781021,528.729553 
	C67.328278,515.073730 68.379211,501.823975 74.007523,489.207184 
	C78.106560,480.018494 84.303947,472.552002 93.688263,467.567474 
z"/>
<path fill="#000000" opacity="0" stroke="none" 
	d="
M291.054504,382.986237 
	C305.486664,404.227417 319.848938,425.110626 334.691315,446.692017 
	C315.513611,446.692017 297.034180,446.692017 278.159607,446.692017 
	C278.159607,455.625580 278.159607,464.035614 278.159607,473.123077 
	C270.460693,473.556549 263.121216,473.969818 255.575790,474.394653 
	C240.108643,426.956482 240.162033,380.072601 256.389130,332.819946 
	C268.051758,349.611053 279.518188,366.119690 291.054504,382.986237 
z"/>
<path fill="#F96A01" opacity="1.000000" stroke="none" 
	d="
M223.092834,564.855469 
	C223.092834,567.144897 223.092834,568.955811 223.092834,571.032715 
	C212.740479,573.014832 202.720001,574.187500 192.669510,571.458740 
	C182.828827,568.786926 177.343063,562.051086 176.979813,551.490601 
	C176.596237,540.339294 176.800339,529.167664 176.750565,518.004944 
	C176.742584,516.214600 176.749451,514.424133 176.749451,512.219849 
	C172.655029,512.219849 169.056564,512.219849 165.107361,512.219849 
	C165.107361,505.406616 165.107361,498.997955 165.107361,491.748444 
	C167.687775,491.748444 170.439209,491.611389 173.170670,491.786346 
	C175.996582,491.967346 176.999069,490.861023 176.949265,488.047760 
	C176.819672,480.727173 176.905701,473.402771 176.905701,465.522095 
	C186.958237,465.522095 196.683487,465.522095 206.870468,465.522095 
	C206.870468,473.752197 206.870468,482.340576 206.870468,491.506958 
	C212.353012,491.506958 217.417999,491.506958 222.781631,491.506958 
	C222.781631,498.504883 222.781631,504.930023 222.781631,511.919708 
	C217.834930,511.919708 212.775970,511.919708 207.299179,511.919708 
	C207.299179,523.234802 207.187653,534.000000 207.365662,544.760498 
	C207.420624,548.082275 209.816223,549.854797 213.044266,549.873352 
	C216.178513,549.891418 219.315338,549.462585 223.092819,549.182373 
	C223.092819,554.192871 223.092819,559.284912 223.092834,564.855469 
z"/>
<path fill="#F96A00" opacity="1.000000" stroke="none" 
	d="
M326.996643,495.000000 
	C326.996643,520.772705 326.996643,546.045349 326.996643,571.657104 
	C316.401489,571.657104 306.020111,571.657104 295.319397,571.657104 
	C295.319397,536.047668 295.319397,500.365845 295.319397,464.343262 
	C305.597870,464.343262 315.979248,464.343262 326.996643,464.343262 
	C326.996643,474.339478 326.996643,484.419739 326.996643,495.000000 
z"/>
<path fill="#F96A01" opacity="1.000000" stroke="none" 
	d="
M268.417969,521.376587 
	C266.765442,525.794434 264.369293,529.905945 264.188873,534.112488 
	C263.655670,546.543274 263.998291,559.011658 263.998291,571.729919 
	C253.896683,571.729919 244.157837,571.729919 234.083405,571.729919 
	C234.083405,545.296753 234.083405,518.916443 234.083405,492.142395 
	C242.393494,492.142395 250.799179,492.142395 259.666046,492.142395 
	C259.666046,496.142303 259.666046,500.380371 259.666046,504.618408 
	C259.958252,504.703400 260.250458,504.788391 260.542664,504.873352 
	C261.180054,503.565674 261.796021,502.247040 262.458405,500.952148 
	C266.332703,493.378296 273.887115,489.091827 282.120087,490.117676 
	C283.256500,490.259247 285.076721,491.875580 285.105042,492.851959 
	C285.344818,501.117706 285.241943,509.393402 285.241943,516.273926 
	C279.136108,518.058899 273.911530,519.586304 268.417969,521.376587 
z"/>
<path fill="#000000" opacity="0" stroke="none" 
	d="
M375.620575,603.892700 
	C366.014099,598.964355 356.861633,594.051636 347.596130,589.362244 
	C344.884369,587.989807 343.813324,586.291199 343.878754,583.216125 
	C344.069031,574.272522 343.946259,565.322205 343.946259,556.120422 
	C354.990173,556.120422 365.722961,556.120422 377.137360,556.120422 
	C377.137360,559.250183 377.137360,562.498535 377.137360,565.746887 
	C377.137360,577.054260 377.176758,588.361938 377.088440,599.668640 
	C377.077179,601.112915 376.400085,602.552063 375.620575,603.892700 
z"/>
<path fill="#F96A00" opacity="1.000000" stroke="none" 
	d="
M345.461487,513.449829 
	C359.046265,513.115906 372.288696,513.115906 385.762146,513.115906 
	C385.762146,521.808228 385.762146,530.180542 385.762146,538.773010 
	C372.178192,538.773010 358.817841,538.773010 345.119171,538.773010 
	C345.119171,530.297058 345.119171,522.040344 345.461487,513.449829 
z"/>
<path fill="#000000" opacity="0" stroke="none" 
	d="
M353.293732,473.741577 
	C358.355438,481.120575 363.159515,488.239014 368.273346,495.816467 
	C359.947815,495.816467 352.260803,495.816467 344.258911,495.816467 
	C344.258911,484.404755 344.258911,472.936493 344.258911,460.820465 
	C347.389954,465.336761 350.213013,469.408875 353.293732,473.741577 
z"/>
<path fill="#F96B02" opacity="1.000000" stroke="none" 
	d="
M857.985107,592.947449 
	C861.564697,593.214600 864.671021,593.452515 867.700562,593.684509 
	C868.639954,609.783875 856.256470,627.425354 839.919617,632.961426 
	C808.075317,643.752319 774.163757,627.917969 770.808533,588.328308 
	C769.505798,572.957520 770.739624,558.039429 778.520752,544.312988 
	C787.343628,528.748840 800.894165,521.027161 818.703735,520.969788 
	C824.003662,520.952759 829.429077,521.102844 834.585205,522.185181 
	C854.163452,526.294617 868.416443,544.896667 867.922546,565.773315 
	C858.100159,566.251953 848.218750,566.802795 838.329773,567.076782 
	C837.582764,567.097473 836.394165,565.253479 836.082581,564.095520 
	C835.354614,561.390442 835.407166,558.442505 834.474548,555.832031 
	C832.466187,550.210693 828.398193,546.524048 822.306946,546.196228 
	C816.371582,545.876770 811.826355,548.982666 809.837646,554.424927 
	C807.979553,559.509521 806.418457,564.969910 806.199585,570.325195 
	C805.848450,578.917847 806.323975,587.602356 807.254761,596.160522 
	C807.623596,599.552979 809.525452,603.247253 811.802429,605.873901 
	C818.089966,613.126892 829.776367,611.414673 833.984436,602.790833 
	C835.565186,599.551331 836.269531,595.884155 837.559570,591.826782 
	C843.966736,592.177246 850.739258,592.547729 857.985107,592.947449 
z"/>
<path fill="#F96C05" opacity="1.000000" stroke="none" 
	d="
M671.665894,567.346069 
	C672.840271,568.239929 674.137268,569.111633 674.157776,570.012390 
	C674.324158,577.322205 674.251282,584.637451 674.251282,592.423218 
	C662.164734,592.423218 650.409851,592.423218 638.158691,592.423218 
	C638.158691,606.464294 638.158691,620.042969 638.158691,633.936035 
	C626.763977,633.936035 615.865906,633.936035 604.649658,633.936035 
	C604.649658,596.960327 604.649658,560.050598 604.649658,522.737305 
	C631.379028,522.737305 658.073242,522.737305 685.006226,522.737305 
	C685.006226,531.463440 685.006226,540.036133 685.006226,549.069336 
	C669.352478,549.069336 653.942200,549.069336 638.271484,549.069336 
	C638.271484,555.268494 638.271484,561.009827 638.271484,567.337463 
	C649.333374,567.337463 660.265198,567.337463 671.665894,567.346069 
z"/>
<path fill="#F96B03" opacity="1.000000" stroke="none" 
	d="
M747.093994,585.000000 
	C747.082153,601.162903 747.071411,616.825806 747.050598,632.488708 
	C747.050171,632.808594 746.932861,633.128357 746.791321,633.849426 
	C736.351562,633.849426 725.830566,633.849426 714.832764,633.849426 
	C714.832764,605.856567 714.832764,577.942017 714.832764,549.482300 
	C706.972534,549.482300 699.559570,549.482300 691.749268,549.482300 
	C691.749268,540.384888 691.749268,531.819763 691.749268,522.796265 
	C717.617126,522.796265 743.642029,522.796265 769.960693,522.796265 
	C769.960693,531.412354 769.960693,539.992554 769.960693,549.140808 
	C762.505066,549.140808 755.105225,549.140808 747.093994,549.140808 
	C747.093994,561.296692 747.093994,572.898376 747.093994,585.000000 
z"/>
<path fill="#F96B04" opacity="1.000000" stroke="none" 
	d="
M736.852783,699.146179 
	C741.602600,695.604187 741.418457,690.649841 742.060791,686.025452 
	C738.420349,687.462219 735.101685,689.562744 731.571960,690.014587 
	C721.556213,691.296875 713.502136,686.021423 710.589294,677.038696 
	C707.427429,667.288147 711.203796,656.839722 719.705505,651.816284 
	C735.250916,642.631104 754.063049,650.168945 758.514954,667.597900 
	C761.454834,679.107361 760.549438,690.443909 755.002869,701.087402 
	C748.740906,713.103638 732.163635,717.699951 720.484619,710.787415 
	C715.506714,707.841064 712.357727,703.517700 711.424316,696.923340 
	C716.576172,696.028381 721.717834,695.135193 727.196045,694.183594 
	C728.791748,698.673218 731.451477,701.372620 736.852783,699.146179 
M736.513794,676.219238 
	C737.620789,675.272949 739.014404,674.514526 739.781067,673.345154 
	C742.093384,669.818420 740.921143,664.487976 737.462952,662.362000 
	C734.073853,660.278564 730.473389,660.896118 728.911926,664.184143 
	C727.666138,666.807312 727.623840,670.580811 728.439331,673.447815 
	C729.323425,676.556335 732.492493,677.532898 736.513794,676.219238 
z"/>
<path fill="#F96B04" opacity="1.000000" stroke="none" 
	d="
M683.999023,713.001282 
	C673.865601,713.001282 664.231873,713.001282 654.004456,713.001282 
	C654.004456,708.451050 653.740234,704.156372 654.151917,699.927490 
	C654.290527,698.503662 655.951416,697.007263 657.249084,695.953491 
	C664.730957,689.877625 672.452576,684.088135 679.767578,677.821777 
	C681.744751,676.128113 683.172852,673.260803 683.817261,670.674133 
	C684.690369,667.169617 683.490540,663.905457 679.435669,662.950134 
	C675.650940,662.058533 672.933899,663.737427 671.500916,667.294861 
	C670.766663,669.117615 670.315796,671.054626 669.591064,673.414490 
	C664.515991,672.478149 659.519653,671.556274 654.148987,670.565369 
	C655.188354,663.137451 657.836304,656.956909 664.134888,652.874512 
	C673.136353,647.040161 682.742065,646.698181 692.162476,651.248474 
	C703.965332,656.949280 706.562012,673.072510 697.181030,682.557922 
	C692.114990,687.680359 686.108032,691.872253 679.902466,696.998718 
	C684.208984,696.998718 687.947327,696.998718 691.685608,696.998718 
	C695.315552,696.998718 698.945435,696.998718 703.163513,696.998718 
	C702.867737,702.493469 702.594971,707.561157 702.302124,713.001282 
	C696.117065,713.001282 690.307861,713.001282 683.999023,713.001282 
z"/>
<path fill="#F96D07" opacity="1.000000" stroke="none" 
	d="
M602.330566,661.579651 
	C603.531982,660.069458 604.601807,658.780823 605.953064,657.949646 
	C610.414062,655.205688 614.857544,652.383118 619.550842,650.088074 
	C621.891785,648.943420 624.740479,648.712097 627.398499,648.380371 
	C629.513306,648.116516 631.687378,648.327209 634.520508,648.327209 
	C634.520508,665.143860 634.520508,681.664001 634.520508,698.593994 
	C639.629883,698.593994 644.065308,698.593994 648.880188,698.593994 
	C648.880188,703.409180 648.880188,707.815491 648.880188,712.618286 
	C633.220642,712.618286 617.355225,712.618286 601.111511,712.618286 
	C601.111511,708.363831 601.111511,703.971680 601.111511,698.951660 
	C605.798950,698.951660 610.684753,698.951660 615.940674,698.951660 
	C615.940674,688.661133 615.940674,678.986633 615.940674,669.077454 
	C611.540161,670.506653 607.352051,671.866882 602.327942,673.498596 
	C602.327942,669.177185 602.327942,665.593994 602.330566,661.579651 
z"/>
<path fill="#F96B02" opacity="1.000000" stroke="none" 
	d="
M829.689026,670.761108 
	C826.785339,671.667480 824.261658,672.423645 821.322998,673.304199 
	C821.322998,668.302856 821.322998,663.762268 821.322998,660.769714 
	C827.759644,656.507568 833.140015,652.015442 839.290894,649.216736 
	C843.045105,647.508423 847.984741,648.405151 852.866394,648.102417 
	C852.866394,665.117126 852.866394,681.515503 852.866394,698.492371 
	C858.017944,698.492371 862.742126,698.492371 867.774170,698.492371 
	C867.774170,703.481995 867.774170,707.898254 867.774170,712.660645 
	C851.974365,712.660645 836.073425,712.660645 819.757080,712.660645 
	C819.757080,708.271484 819.757080,703.753540 819.757080,698.853760 
	C824.669434,698.853760 829.446411,698.853760 834.609985,698.853760 
	C834.609985,688.770020 834.609985,679.048645 834.609985,668.825989 
	C833.069092,669.431641 831.569092,670.021240 829.689026,670.761108 
z"/>
<path fill="#F96C06" opacity="1.000000" stroke="none" 
	d="
M783.988892,680.043701 
	C787.274841,675.053345 790.416931,670.402771 793.877136,665.281250 
	C784.416748,665.281250 775.227600,665.281250 765.417847,665.281250 
	C765.848877,659.751404 766.238159,654.757568 766.642395,649.571777 
	C781.976379,649.571777 796.719299,649.571777 811.945190,649.571777 
	C812.161987,655.150879 812.977539,660.194458 809.317078,665.531006 
	C799.695068,679.558533 795.039185,695.341187 795.310181,712.736694 
	C788.646118,712.736694 781.909119,712.736694 774.834473,712.736694 
	C774.550842,700.858337 778.636169,690.469238 783.988892,680.043701 
z"/>
<path fill="#FFF6F3" opacity="1.000000" stroke="none" 
	d="
M736.168640,676.389282 
	C732.492493,677.532898 729.323425,676.556335 728.439331,673.447815 
	C727.623840,670.580811 727.666138,666.807312 728.911926,664.184143 
	C730.473389,660.896118 734.073853,660.278564 737.462952,662.362000 
	C740.921143,664.487976 742.093384,669.818420 739.781067,673.345154 
	C739.014404,674.514526 737.620789,675.272949 736.168640,676.389282 
z"/>
</svg>