<?xml version="1.0" encoding="utf-8"?>
<svg version="1.1" xmlns="http://www.w3.org/2000/svg" xmlns:xlink="http://www.w3.org/1999/xlink" x="0px" y="0px" viewBox="0 0 256 256" enable-background="new 0 0 256 256" xml:space="preserve">
<g><g><g><path fill="#8b0000" d="M20.1,10.7c-4.6,1.6-7.9,5-9.4,9.6C10,22.4,9.9,32.4,10,129l0.1,106.4l1.2,2.3c1.4,3,4.2,5.7,7.2,7.2l2.3,1.2h107.3h107.3l2.3-1.2c3-1.4,5.7-4.2,7.2-7.2l1.2-2.3V128.1V20.8l-1.2-2.3c-1.4-3-4.2-5.7-7.2-7.2l-2.3-1.2l-106.6-0.1C32.7,10,22,10,20.1,10.7z M162.7,79.7c1.5,0.6,13.3,12.4,13.9,13.9c0.7,1.9,0.6,5.4-0.3,6.7c-0.4,0.6-6.7,7.1-14,14.4l-13.2,13.3l13.7,13.7c9,9.1,13.8,14.2,14,15c0.2,0.7,0.2,2.4,0.1,3.6c-0.2,2.3-0.3,2.4-7.2,9.2c-6.8,6.9-6.9,7-9.2,7.2c-1.3,0.1-3,0-3.6-0.1c-0.8-0.2-6-4.9-15-14l-13.7-13.7l-13.3,13.2c-7.3,7.3-13.8,13.6-14.4,14c-1.3,0.8-4.8,1-6.8,0.2c-0.7-0.2-4.1-3.3-7.5-6.8c-5.3-5.3-6.4-6.6-6.8-8.4c-0.3-1.1-0.5-2.2-0.4-2.5c0.1-0.3,0.3-1.2,0.5-1.9c0.2-1,4.1-5.1,14-15.1l13.7-13.7l-13.2-13.3c-7.3-7.3-13.6-13.8-14-14.4c-0.8-1.3-1-4.8-0.2-6.8c0.6-1.7,12.3-13.3,13.9-13.9c1.9-0.7,5.5-0.6,6.8,0.2c0.6,0.4,7.1,6.7,14.4,14l13.3,13.2l13.7-13.7c10-9.9,14.1-13.8,15.1-14c0.8-0.2,1.6-0.4,1.8-0.5C159.3,78.8,161.1,79.1,162.7,79.7z"/></g></g></g>
</svg>